<svg width="1024" height="1024" viewBox="0 0 1024 1024" fill="none" xmlns="http://www.w3.org/2000/svg">
<g filter="url(#filter0_d_103_47)">
<path fill-rule="evenodd" clip-rule="evenodd" d="M924 356.627C924 346.845 924.004 337.062 923.944 327.279C923.895 319.038 923.8 310.799 923.576 302.562C923.092 284.609 922.033 266.502 918.84 248.749C915.602 230.741 910.314 213.98 901.981 197.617C893.789 181.534 883.088 166.817 870.32 154.058C857.555 141.299 842.834 130.605 826.746 122.418C810.366 114.083 793.587 108.797 775.558 105.56C757.803 102.372 739.691 101.315 721.738 100.83C713.495 100.607 705.253 100.513 697.008 100.462C687.22 100.402 677.432 100.407 667.644 100.407L553.997 100H468.997L357.361 100.407C347.554 100.407 337.747 100.402 327.94 100.462C319.678 100.513 311.42 100.607 303.161 100.83C285.167 101.315 267.014 102.373 249.217 105.565C231.164 108.801 214.36 114.085 197.958 122.414C181.835 130.602 167.083 141.297 154.291 154.058C141.501 166.816 130.78 181.53 122.573 197.61C114.217 213.981 108.919 230.752 105.673 248.77C102.477 266.516 101.418 284.617 100.931 302.562C100.709 310.8 100.613 319.039 100.563 327.279C100.503 337.063 100 349.216 100 358.999L100.003 469.089L100 554.998L100.508 667.427C100.508 677.223 100.504 687.019 100.563 696.815C100.613 705.067 100.709 713.317 100.932 721.566C101.418 739.542 102.479 757.675 105.678 775.452C108.923 793.484 114.22 810.269 122.569 826.653C130.777 842.759 141.5 857.495 154.291 870.272C167.082 883.049 181.83 893.757 197.95 901.956C214.362 910.302 231.174 915.595 249.238 918.836C267.027 922.029 285.174 923.088 303.161 923.573C311.42 923.796 319.679 923.891 327.941 923.941C337.748 924.001 347.554 923.997 357.361 923.997L470.006 924H555.217L667.644 923.996C677.432 923.996 687.22 924.001 697.008 923.941C705.253 923.891 713.495 923.796 721.738 923.573C739.698 923.087 757.816 922.027 775.579 918.832C793.597 915.591 810.368 910.3 826.739 901.959C842.831 893.761 857.554 883.051 870.32 870.272C883.086 857.497 893.786 842.763 901.978 826.66C910.316 810.268 915.604 793.475 918.844 775.431C922.034 757.661 923.092 739.535 923.577 721.566C923.8 713.316 923.895 705.066 923.944 696.815C924.005 687.019 924 677.223 924 667.427C924 667.427 923.994 556.983 923.994 554.998V468.999C923.994 467.533 924 356.627 924 356.627" fill="white"/>
</g>
<mask id="mask0_103_47" style="mask-type:luminance" maskUnits="userSpaceOnUse" x="100" y="100" width="824" height="824">
<path fill-rule="evenodd" clip-rule="evenodd" d="M924 356.627C924 346.845 924.004 337.062 923.944 327.279C923.895 319.038 923.8 310.799 923.576 302.562C923.092 284.609 922.033 266.502 918.84 248.749C915.602 230.741 910.314 213.98 901.981 197.617C893.789 181.534 883.088 166.817 870.32 154.058C857.555 141.299 842.834 130.605 826.746 122.418C810.366 114.083 793.587 108.797 775.558 105.56C757.803 102.372 739.691 101.315 721.738 100.83C713.495 100.607 705.253 100.513 697.008 100.462C687.22 100.402 677.432 100.407 667.644 100.407L553.997 100H468.997L357.361 100.407C347.554 100.407 337.747 100.402 327.94 100.462C319.678 100.513 311.42 100.607 303.161 100.83C285.167 101.315 267.014 102.373 249.217 105.565C231.164 108.801 214.36 114.085 197.958 122.414C181.835 130.602 167.083 141.297 154.291 154.058C141.501 166.816 130.78 181.53 122.573 197.61C114.217 213.981 108.919 230.752 105.673 248.77C102.477 266.516 101.418 284.617 100.931 302.562C100.709 310.8 100.613 319.039 100.563 327.279C100.503 337.063 100 349.216 100 358.999L100.003 469.089L100 554.998L100.508 667.427C100.508 677.223 100.504 687.019 100.563 696.815C100.613 705.067 100.709 713.317 100.932 721.566C101.418 739.542 102.479 757.675 105.678 775.452C108.923 793.484 114.22 810.269 122.569 826.653C130.777 842.759 141.5 857.495 154.291 870.272C167.082 883.049 181.83 893.757 197.95 901.956C214.362 910.302 231.174 915.595 249.238 918.836C267.027 922.029 285.174 923.088 303.161 923.573C311.42 923.796 319.679 923.891 327.941 923.941C337.748 924.001 347.554 923.997 357.361 923.997L470.006 924H555.217L667.644 923.996C677.432 923.996 687.22 924.001 697.008 923.941C705.253 923.891 713.495 923.796 721.738 923.573C739.698 923.087 757.816 922.027 775.579 918.832C793.597 915.591 810.368 910.3 826.739 901.959C842.831 893.761 857.554 883.051 870.32 870.272C883.086 857.497 893.786 842.763 901.978 826.66C910.316 810.268 915.604 793.475 918.844 775.431C922.034 757.661 923.092 739.535 923.577 721.566C923.8 713.316 923.895 705.066 923.944 696.815C924.005 687.019 924 677.223 924 667.427C924 667.427 923.994 556.983 923.994 554.998V468.999C923.994 467.533 924 356.627 924 356.627" fill="white"/>
</mask>
<g mask="url(#mask0_103_47)">
</g>
<path d="M751.005 444.3C738.305 444.3 728.01 454.595 728.01 467.295C728.01 586.68 630.885 683.805 511.5 683.805C392.115 683.805 294.99 586.68 294.99 467.295C294.99 449.593 275.827 438.53 260.497 447.381C253.383 451.488 249 459.08 249 467.295C249 612.037 366.757 729.795 511.5 729.795C656.242 729.795 774 612.037 774 467.295C774 454.595 763.705 444.3 751.005 444.3Z" fill="#1976D2"/>
<path d="M511.5 642.939C608.504 642.939 687.14 564.299 687.133 467.295C687.133 378.045 620.616 304.471 534.485 293.205V467.295C534.485 484.997 515.322 496.06 499.992 487.209C492.877 483.102 488.495 475.51 488.495 467.295V293.205C402.395 304.471 335.846 378.097 335.846 467.295C335.839 564.307 414.488 642.951 511.5 642.939ZM639.232 462.412H671.163C674.925 462.412 677.277 466.485 675.396 469.745C674.523 471.257 672.909 472.188 671.163 472.188H639.232C635.47 472.188 633.118 468.115 635 464.857C635.872 463.344 637.486 462.412 639.232 462.412ZM598.366 373.519L620.952 350.955C623.612 348.295 628.152 349.512 629.125 353.145C629.577 354.831 629.095 356.63 627.861 357.864L605.275 380.428C602.616 383.088 598.076 381.871 597.102 378.238C596.651 376.553 597.133 374.753 598.366 373.519ZM598.366 554.119C600.273 552.21 603.369 552.21 605.275 554.119L627.861 576.705C630.521 579.365 629.304 583.905 625.671 584.878C623.985 585.33 622.186 584.848 620.952 583.614L598.366 561.028C596.49 559.124 596.49 556.066 598.366 554.161V554.119ZM506.618 594.985C506.618 591.223 510.69 588.871 513.949 590.753C515.462 591.625 516.393 593.239 516.393 594.985V626.916C516.393 630.678 512.32 633.03 509.062 631.149C507.549 630.276 506.618 628.662 506.618 626.916V594.985ZM395.139 350.955C397.046 349.045 400.141 349.045 402.048 350.955L424.623 373.54C427.283 376.2 426.066 380.74 422.433 381.714C420.747 382.165 418.948 381.683 417.714 380.449L395.139 357.864C393.235 355.954 393.235 352.865 395.139 350.955ZM395.139 576.768L417.714 554.182C420.374 551.523 424.914 552.74 425.887 556.373C426.339 558.058 425.857 559.858 424.623 561.091L402.048 583.677C399.388 586.337 394.848 585.12 393.875 581.487C393.423 579.801 393.905 578.002 395.139 576.768ZM383.757 472.209H351.827C348.064 472.209 345.712 468.136 347.594 464.878C348.467 463.365 350.08 462.433 351.827 462.433H383.757C387.519 462.433 389.871 466.506 387.99 469.766C387.117 471.278 385.503 472.209 383.757 472.209Z" fill="#1976D2"/>
<defs>
<filter id="filter0_d_103_47" x="90" y="100" width="844" height="844" filterUnits="userSpaceOnUse" color-interpolation-filters="sRGB">
<feFlood flood-opacity="0" result="BackgroundImageFix"/>
<feColorMatrix in="SourceAlpha" type="matrix" values="0 0 0 0 0 0 0 0 0 0 0 0 0 0 0 0 0 0 127 0" result="hardAlpha"/>
<feOffset dy="10"/>
<feGaussianBlur stdDeviation="5"/>
<feColorMatrix type="matrix" values="0 0 0 0 0 0 0 0 0 0 0 0 0 0 0 0 0 0 0.3 0"/>
<feBlend mode="normal" in2="BackgroundImageFix" result="effect1_dropShadow_103_47"/>
<feBlend mode="normal" in="SourceGraphic" in2="effect1_dropShadow_103_47" result="shape"/>
</filter>
</defs>
</svg>
